<?xml version="1.0" encoding="utf-8"?>
<svg width="245px" height="276px" viewBox="0 0 245 276" version="1.1" id="svg112" xmlns="http://www.w3.org/2000/svg">
  <title id="title82">Campaign Objective</title>
  <desc id="desc84">Created with Sketch.</desc>
  <defs id="defs86">
    <linearGradient gradientUnits="userSpaceOnUse" x1="119.351" y1="-0.497" x2="119.351" y2="268.589" id="gradient-0">
      <stop offset="0" style="stop-color: rgba(189, 137, 64, 1)"/>
      <stop offset="1" style="stop-color: rgba(113, 82, 38, 1)"/>
    </linearGradient>
    <linearGradient gradientUnits="userSpaceOnUse" x1="119.059" y1="74.542" x2="119.059" y2="193.531" id="gradient-1">
      <stop offset="0" style="stop-color: rgba(56, 160, 0, 1)"/>
      <stop offset="1" style="stop-color: rgba(20, 58, 0, 1)"/>
    </linearGradient>
    <linearGradient gradientUnits="userSpaceOnUse" x1="172.553" y1="129.037" x2="172.553" y2="139.036" id="gradient-2">
      <stop offset="0" style="stop-color: rgba(56, 160, 0, 1)"/>
      <stop offset="1" style="stop-color: rgba(20, 58, 0, 1)"/>
    </linearGradient>
    <linearGradient gradientUnits="userSpaceOnUse" x1="119.235" y1="57.684" x2="119.235" y2="103.752" id="gradient-3">
      <stop offset="0" style="stop-color: rgba(56, 160, 0, 1)"/>
      <stop offset="1" style="stop-color: rgba(20, 58, 0, 1)"/>
    </linearGradient>
    <linearGradient gradientUnits="userSpaceOnUse" x1="119.235" y1="126.587" x2="119.235" y2="141.485" id="gradient-4">
      <stop offset="0" style="stop-color: rgba(56, 160, 0, 1)"/>
      <stop offset="1" style="stop-color: rgba(20, 58, 0, 1)"/>
    </linearGradient>
    <linearGradient gradientUnits="userSpaceOnUse" x1="65.916" y1="129.037" x2="65.916" y2="139.036" id="gradient-5">
      <stop offset="0" style="stop-color: rgba(56, 160, 0, 1)"/>
      <stop offset="1" style="stop-color: rgba(20, 58, 0, 1)"/>
    </linearGradient>
    <linearGradient gradientUnits="userSpaceOnUse" x1="119.235" y1="164.321" x2="119.235" y2="210.389" id="gradient-6">
      <stop offset="0" style="stop-color: rgba(56, 160, 0, 1)"/>
      <stop offset="1" style="stop-color: rgba(20, 58, 0, 1)"/>
    </linearGradient>
  </defs>
  <g id="Home" stroke="none" stroke-width="1" fill="none" fill-rule="evenodd">
    <g id="Campaign-Objective" transform="matrix(1, 0, 0, 1, 3, 4.64186)">
      <path d="M10.172,59.437 L109.328,2.189 C115.53,-1.392 123.172,-1.392 129.375,2.189 L228.531,59.437 C234.733,63.018 238.554,69.636 238.554,76.798 L238.554,191.294 C238.554,198.456 234.733,205.074 228.531,208.655 L129.375,265.903 C123.172,269.484 115.53,269.484 109.328,265.903 L10.172,208.655 C3.969,205.074 0.148,198.456 0.148,191.294 L0.148,76.798 C0.148,69.636 3.969,63.018 10.172,59.437 L10.172,59.437 Z" id="Fill-1537" style="fill: url(#gradient-0);"/>
      <path d="M173.73,134.036 C173.73,164.133 149.331,188.531 119.235,188.531 C89.138,188.531 64.74,164.133 64.74,134.036 C64.74,103.94 89.138,79.541 119.235,79.541 C149.331,79.541 173.73,103.94 173.73,134.036 L173.73,134.036 Z" id="Fill-1539" style="fill: rgb(189, 137, 64);"/>
      <path d="M173.73,134.036 C173.73,164.133 149.331,188.531 119.235,188.531 C89.138,188.531 64.74,164.133 64.74,134.036 C64.74,103.94 89.138,79.541 119.235,79.541 C149.331,79.541 173.73,103.94 173.73,134.036 L173.73,134.036 Z" id="Stroke-1540" stroke="#1D5777" stroke-width="6" stroke-linecap="round" stroke-linejoin="round" style="fill: rgb(10, 10, 10);"/>
      <path d="M119.234,193.531 C86.428,193.531 59.739,166.842 59.739,134.036 C59.739,101.231 86.428,74.542 119.234,74.542 C152.041,74.542 178.73,101.231 178.73,134.036 C178.73,166.842 152.041,193.531 119.234,193.531 L119.234,193.531 Z M119.234,84.541 C91.942,84.541 69.739,106.745 69.739,134.036 C69.739,161.328 91.942,183.532 119.234,183.532 C146.526,183.532 168.73,161.328 168.73,134.036 C168.73,106.745 146.526,84.541 119.234,84.541 L119.234,84.541 Z" id="Fill-1541" style="fill: rgb(189, 137, 64);"/>
      <path d="M 119.059 193.531 C 86.253 193.531 59.564 166.842 59.564 134.036 C 59.564 101.231 86.253 74.542 119.059 74.542 C 151.866 74.542 178.555 101.231 178.555 134.036 C 178.555 166.842 151.866 193.531 119.059 193.531 L 119.059 193.531 Z M 119.059 84.541 C 91.767 84.541 69.564 106.745 69.564 134.036 C 69.564 161.328 91.767 183.532 119.059 183.532 C 146.351 183.532 168.555 161.328 168.555 134.036 C 168.555 106.745 146.351 84.541 119.059 84.541 L 119.059 84.541 Z" id="Stroke-1542" stroke="#1D5777" stroke-width="6" stroke-linecap="round" stroke-linejoin="round" style="fill: url(#gradient-1);"/>
      <path d="M119.235,141.485 C115.127,141.485 111.786,138.144 111.786,134.036 C111.786,129.929 115.127,126.587 119.235,126.587 C123.342,126.587 126.684,129.929 126.684,134.036 C126.684,138.144 123.342,141.485 119.235,141.485 L119.235,141.485 Z" id="Fill-1543" style="fill: rgb(189, 137, 64);"/>
      <path d="M119.235,141.485 C115.127,141.485 111.786,138.144 111.786,134.036 C111.786,129.929 115.127,126.587 119.235,126.587 C123.342,126.587 126.684,129.929 126.684,134.036 C126.684,138.144 123.342,141.485 119.235,141.485 L119.235,141.485 Z" id="Stroke-1544" stroke="#1D5777" stroke-width="6" stroke-linecap="round" stroke-linejoin="round" style="fill: url(#gradient-4);"/>
      <path d="M119.235,103.752 C116.473,103.752 114.235,101.513 114.235,98.752 L114.235,62.683 C114.235,59.922 116.473,57.684 119.235,57.684 C121.996,57.684 124.235,59.922 124.235,62.683 L124.235,98.752 C124.235,101.513 121.996,103.752 119.235,103.752 L119.235,103.752 Z" id="Fill-1545" style="fill: rgb(189, 137, 64);"/>
      <path d="M119.235,103.752 C116.473,103.752 114.235,101.513 114.235,98.752 L114.235,62.683 C114.235,59.922 116.473,57.684 119.235,57.684 C121.996,57.684 124.235,59.922 124.235,62.683 L124.235,98.752 C124.235,101.513 121.996,103.752 119.235,103.752 L119.235,103.752 Z" id="Stroke-1546" stroke="#1D5777" stroke-width="6" stroke-linecap="round" stroke-linejoin="round" style="fill: url(#gradient-3);"/>
      <path d="M119.235,169.321 L119.235,205.39" id="Fill-1547" style="fill: rgb(189, 137, 64);"/>
      <path d="M119.235,169.321 L119.235,205.39" id="Stroke-1548" stroke="#1D5777" style="fill: rgb(189, 137, 64);"/>
      <path d="M119.235,210.389 C116.473,210.389 114.235,208.151 114.235,205.389 L114.235,169.321 C114.235,166.559 116.473,164.321 119.235,164.321 C121.996,164.321 124.235,166.559 124.235,169.321 L124.235,205.389 C124.235,208.151 121.996,210.389 119.235,210.389 L119.235,210.389 Z" id="Fill-1549" style="fill: rgb(189, 137, 64);"/>
      <path d="M119.235,210.389 C116.473,210.389 114.235,208.151 114.235,205.389 L114.235,169.321 C114.235,166.559 116.473,164.321 119.235,164.321 C121.996,164.321 124.235,166.559 124.235,169.321 L124.235,205.389 C124.235,208.151 121.996,210.389 119.235,210.389 L119.235,210.389 Z" id="Stroke-1550" stroke="#1D5777" stroke-width="6" stroke-linecap="round" stroke-linejoin="round" style="fill: url(#gradient-6);"/>
      <path d="M190.588,134.036 L154.52,134.036" id="Fill-1551" style="fill: rgb(189, 137, 64);"/>
      <path d="M190.588,134.036 L154.52,134.036" id="Stroke-1552" stroke="#1D5777" style="fill: rgb(189, 137, 64);"/>
      <path d="M190.588,139.036 L154.52,139.036 C151.758,139.036 149.519,136.798 149.519,134.036 C149.519,131.275 151.758,129.037 154.52,129.037 L190.588,129.037 C193.349,129.037 195.588,131.275 195.588,134.036 C195.588,136.798 193.349,139.036 190.588,139.036 L190.588,139.036 Z" id="Fill-1553" style="fill: rgb(189, 137, 64);"/>
      <path d="M190.588,139.036 L154.52,139.036 C151.758,139.036 149.519,136.798 149.519,134.036 C149.519,131.275 151.758,129.037 154.52,129.037 L190.588,129.037 C193.349,129.037 195.588,131.275 195.588,134.036 C195.588,136.798 193.349,139.036 190.588,139.036 L190.588,139.036 Z" id="Stroke-1554" stroke="#1D5777" stroke-width="6" stroke-linecap="round" stroke-linejoin="round" style="fill: url(#gradient-2);"/>
      <path d="M83.95,134.036 L47.881,134.036" id="Fill-1555" style="fill: rgb(189, 137, 64);"/>
      <path d="M83.95,134.036 L47.881,134.036" id="Stroke-1556" stroke="#1D5777" style="fill: rgb(189, 137, 64);"/>
      <path d="M83.95,139.036 L47.882,139.036 C45.12,139.036 42.882,136.798 42.882,134.036 C42.882,131.275 45.12,129.037 47.882,129.037 L83.95,129.037 C86.712,129.037 88.95,131.275 88.95,134.036 C88.95,136.798 86.712,139.036 83.95,139.036 L83.95,139.036 Z" id="Fill-1557" style="fill: rgb(189, 137, 64);"/>
      <path d="M83.95,139.036 L47.882,139.036 C45.12,139.036 42.882,136.798 42.882,134.036 C42.882,131.275 45.12,129.037 47.882,129.037 L83.95,129.037 C86.712,129.037 88.95,131.275 88.95,134.036 C88.95,136.798 86.712,139.036 83.95,139.036 L83.95,139.036 Z" id="Stroke-1558" stroke="#1D5777" stroke-width="6" stroke-linecap="round" stroke-linejoin="round" style="fill: url(#gradient-5);"/>
      <path style="fill-opacity: 1; stroke: rgb(29, 87, 119); stroke-width: 0.167273; stroke-opacity: 1; fill: rgb(10, 5, 0);" d="m 119.32579,275.30772 c -2.4939,-0.34493 -5.73223,-1.40551 -7.80072,-2.55482 C 107.22257,270.36233 10.950942,214.69188 9.9905242,214.03909 8.2967537,212.88785 5.4346556,209.98284 4.2795586,208.24251 2.5773263,205.67784 1.4467623,203.08712 0.73924199,200.12979 L 0.3790734,198.62433 0.33229473,138.69888 0.28551604,78.773421 H 3.2143838 6.1432515 l 0.0022,59.256369 c 0.00212,57.11604 0.013437,59.31081 0.3133678,60.76398 0.7915501,3.83508 2.9388455,7.34253 5.9894267,9.78329 0.998351,0.79878 14.720152,8.79994 51.714244,30.15449 27.695426,15.98697 50.88988,29.2947 51.54323,29.57273 1.81055,0.77046 3.56774,1.16291 5.70234,1.27355 3.03834,0.15748 5.95425,-0.41641 8.43337,-1.65982 1.77522,-0.89036 100.66113,-58.01945 101.70182,-58.75591 1.12647,-0.79716 3.26035,-2.96365 4.05115,-4.11303 0.73646,-1.07042 1.78416,-3.22176 2.19202,-4.5011 0.82173,-2.57748 0.78229,0.5742 0.78229,-62.51818 V 78.773421 h 2.87787 2.87788 l 0.0977,0.543637 c 0.0537,0.299 0.0742,27.152542 0.0455,59.674542 l -0.0521,59.13091 -0.36761,1.58909 c -1.46784,6.34517 -4.80185,11.3137 -9.82829,14.64667 -1.96852,1.30529 -100.63096,58.22903 -102.20364,58.96685 -1.58905,0.74548 -3.56443,1.40054 -5.2796,1.75078 -1.52775,0.31194 -5.85295,0.44725 -7.41059,0.23182 z" id="path118" transform="translate(-3,-4)"/>
      <path style="fill-opacity: 1; stroke: rgb(29, 87, 119); stroke-width: 0.334545; stroke-opacity: 1; paint-order: stroke markers; fill: rgb(10, 5, 0);" d="m 0.38628914,78.425021 c 0,-1.242294 1.34701286,-5.591288 2.40191336,-7.75487 1.4393894,-2.95216 4.6194527,-6.727442 7.0942979,-8.422149 C 12.274365,60.610118 111.19192,3.5996522 113.3107,2.6378585 c 2.39879,-1.0889065 6.43013,-1.97706152 8.97387,-1.97706152 2.85645,0 6.83033,0.89529522 9.40132,2.11806272 2.44404,1.162398 98.45989,56.4798483 102.11583,58.8318273 3.19816,2.057471 6.50657,5.750629 8.09401,9.035279 1.15929,2.398752 2.35336,6.201684 2.36925,7.54574 0.004,0.301496 -0.7732,0.418182 -2.78384,0.418182 h -2.78879 l -0.58099,-2.089725 C 237.79181,75.370815 237.05204,73.52829 236.46742,72.425658 234.16815,68.089106 236.12707,69.32028 180.49689,37.248377 152.36806,21.031544 128.60083,7.5083376 127.68083,7.1968052 123.72919,5.8586893 118.61002,6.2434118 114.78182,8.1662098 112.44884,9.3379988 15.205871,65.485482 13.506215,66.642113 9.8017983,69.162997 7.3111301,72.9627 6.264507,77.689888 c -0.2026532,0.915306 -0.2181701,0.92 -3.0409553,0.92 -1.5604944,0 -2.83726256,-0.08319 -2.83726256,-0.184867 z" id="path170" transform="translate(-3,-4)"/>
      <path style="fill-opacity: 1; stroke: rgb(29, 87, 119); stroke-width: 0.0591398; stroke-opacity: 1; fill: rgb(0, 0, 0); paint-order: stroke;" d="M 235.505 99.945 C 235.49 75.885 235.484 74.652 235.383 74.152 C 234.898 71.758 233.538 68.477 232.327 66.782 C 231.78 66.016 231.295 65.501 230.528 64.876 C 227.84 62.68 222.26 59.277 204.708 49.128 C 202.187 47.67 199.672 46.216 199.12 45.896 L 198.115 45.315 L 198.406 45.315 C 198.681 45.315 198.913 45.44 202.752 47.661 C 226.231 61.248 230.737 64.095 232.458 66.427 C 233.465 67.792 234.678 70.528 235.397 73.051 L 235.793 74.441 L 238.066 74.438 C 240.251 74.436 240.946 74.391 241.095 74.242 C 241.246 74.091 240.771 72.044 240.168 70.242 C 239.637 68.656 239.314 67.855 238.714 66.634 C 237.02 63.188 233.695 59.554 230.345 57.489 C 229.105 56.724 218.331 50.445 210.871 46.139 L 209.494 45.344 L 209.751 45.327 C 209.994 45.31 210.194 45.416 213.199 47.153 C 214.953 48.167 218.97 50.487 222.125 52.309 C 229.87 56.783 230.602 57.211 231.321 57.692 C 233.759 59.322 235.858 61.408 237.524 63.855 C 239.371 66.568 240.606 69.637 241.249 73.11 C 241.524 74.59 241.517 74.011 241.537 100.329 C 241.548 115.199 241.534 125.212 241.501 125.212 C 241.469 125.212 241.435 115.126 241.416 100.241 C 241.398 86.337 241.362 75.177 241.333 75.062 L 241.281 74.855 L 238.46 74.84 L 235.638 74.824 L 235.638 100.018 C 235.638 116.62 235.618 125.212 235.58 125.212 C 235.541 125.212 235.516 116.584 235.505 99.945 Z" id="path172"/>
      <path style="fill-opacity: 1; stroke: rgb(29, 87, 119); stroke-width: 0.014785; stroke-opacity: 1; fill: rgb(10, 5, 0);" d="M -2.837 80.775 C -2.837 78.032 -2.83 75.965 -2.822 75.818 C -2.815 75.68 -2.804 75.372 -2.799 75.134 C -2.791 74.797 -2.785 74.702 -2.77 74.702 C -2.738 74.702 -2.727 74.551 -2.754 74.473 C -2.803 74.329 -2.722 73.748 -2.548 72.987 C -2.511 72.828 -2.446 72.522 -2.402 72.307 C -1.924 69.961 -1.153 67.831 -0.042 65.788 L 0.112 65.506 L 0.359 65.506 L 0.607 65.506 L 0.55 65.598 C 0.318 65.978 -0.034 66.652 -0.247 67.124 C -1.019 68.834 -1.916 71.55 -2.296 73.327 C -2.387 73.753 -2.467 74.295 -2.442 74.32 C -2.415 74.347 -1.903 74.392 -1.271 74.422 C -0.758 74.446 1.188 74.456 1.71 74.437 C 2.696 74.401 2.898 74.338 3.009 74.032 C 3.03 73.974 3.08 73.783 3.12 73.608 C 3.695 71.089 4.59 68.977 5.911 67.021 C 6.213 66.574 6.744 65.874 7.025 65.554 L 7.067 65.506 L 7.276 65.506 L 7.484 65.506 L 7.442 65.555 C 7.154 65.896 6.922 66.179 6.764 66.385 C 5.28 68.314 4.196 70.6 3.558 73.148 C 3.417 73.711 3.337 74.151 3.261 74.783 L 3.224 75.093 L 3.224 80.287 L 3.224 85.48 L 3.143 85.48 L 3.061 85.48 L 3.061 80.165 L 3.061 74.85 L 0.215 74.85 L -2.631 74.85 L -2.631 80.165 L -2.631 85.48 L -2.734 85.48 L -2.838 85.48 Z" id="path174"/>
      <path style="fill-opacity: 1; stroke: rgb(29, 87, 119); stroke-width: 0.00390625; stroke-opacity: 1; fill: rgb(189, 137, 64);" d="" id="path190" transform="translate(-3,-4)"/>
      <path style="fill-opacity: 1; stroke: rgb(29, 87, 119); stroke-width: 0.00390625; stroke-opacity: 1; fill: rgb(10, 5, 0);" d="M 6.0691061,80.101217 V 78.841451 H 3.7917623 1.5144186 V 78.63031 78.419169 l 0.032227,0.0022 c 0.3401865,0.02348 1.1967584,0.0353 2.3291016,0.03216 0.4050477,-0.0011 0.7664347,-0.0038 0.8222656,-0.0061 0.1823634,-0.0076 0.282308,-0.01239 0.3789063,-0.01824 0.5243008,-0.03174 0.7403711,-0.09131 0.8566633,-0.236179 0.032087,-0.03997 0.070119,-0.115118 0.08994,-0.17771 0.027832,-0.08789 0.072754,-0.265474 0.1373492,-0.542969 0.098212,-0.421911 0.2150703,-0.863702 0.3407106,-1.288085 L 6.5313602,76.08366 H 6.686952 c 0.098601,0 0.1555914,0.0014 0.1555914,0.0038 0,0.0021 -0.016555,0.05879 -0.036789,0.125977 -0.1643754,0.545834 -0.3065449,1.099568 -0.3926199,1.529211 -0.069053,0.344677 -0.1115813,0.62631 -0.1779516,1.178438 l -0.021546,0.179235 v 1.130335 1.130334 h -0.072266 -0.072266 z" id="path192" transform="translate(-3,-4)"/>
    </g>
  </g>
</svg>