<?xml version="1.0" encoding="UTF-8" standalone="no"?>
<svg width="245px" height="276px" viewBox="0 0 245 276" version="1.1" xmlns="http://www.w3.org/2000/svg" xmlns:xlink="http://www.w3.org/1999/xlink" xmlns:sketch="http://www.bohemiancoding.com/sketch/ns">
    <!-- Generator: Sketch 3.1 (8751) - http://www.bohemiancoding.com/sketch -->
    <title>Campaign Objective</title>
    <desc>Created with Sketch.</desc>
    <defs></defs>
    <g id="Home" stroke="none" stroke-width="1" fill="none" fill-rule="evenodd" sketch:type="MSPage">
        <g id="Campaign-Objective" sketch:type="MSLayerGroup" transform="translate(3.000000, 4.000000)">
            <path d="M10.172,59.437 L109.328,2.189 C115.53,-1.392 123.172,-1.392 129.375,2.189 L228.531,59.437 C234.733,63.018 238.554,69.636 238.554,76.798 L238.554,191.294 C238.554,198.456 234.733,205.074 228.531,208.655 L129.375,265.903 C123.172,269.484 115.53,269.484 109.328,265.903 L10.172,208.655 C3.969,205.074 0.148,198.456 0.148,191.294 L0.148,76.798 C0.148,69.636 3.969,63.018 10.172,59.437 L10.172,59.437 Z" id="Fill-1537" fill="#2A8CC0" sketch:type="MSShapeGroup"></path>
            <path d="M10.172,59.437 L109.328,2.189 C115.53,-1.392 123.172,-1.392 129.375,2.189 L228.531,59.437 C234.733,63.018 238.554,69.636 238.554,76.798 L238.554,191.294 C238.554,198.456 234.733,205.074 228.531,208.655 L129.375,265.903 C123.172,269.484 115.53,269.484 109.328,265.903 L10.172,208.655 C3.969,205.074 0.148,198.456 0.148,191.294 L0.148,76.798 C0.148,69.636 3.969,63.018 10.172,59.437 L10.172,59.437 Z" id="Stroke-1538" stroke="#1D5777" stroke-width="6" stroke-linecap="round" stroke-linejoin="round" sketch:type="MSShapeGroup"></path>
            <path d="M173.73,134.036 C173.73,164.133 149.331,188.531 119.235,188.531 C89.138,188.531 64.74,164.133 64.74,134.036 C64.74,103.94 89.138,79.541 119.235,79.541 C149.331,79.541 173.73,103.94 173.73,134.036 L173.73,134.036 Z" id="Fill-1539" fill="#9ACFE2" sketch:type="MSShapeGroup"></path>
            <path d="M173.73,134.036 C173.73,164.133 149.331,188.531 119.235,188.531 C89.138,188.531 64.74,164.133 64.74,134.036 C64.74,103.94 89.138,79.541 119.235,79.541 C149.331,79.541 173.73,103.94 173.73,134.036 L173.73,134.036 Z" id="Stroke-1540" stroke="#1D5777" stroke-width="6" stroke-linecap="round" stroke-linejoin="round" sketch:type="MSShapeGroup"></path>
            <path d="M119.234,193.531 C86.428,193.531 59.739,166.842 59.739,134.036 C59.739,101.231 86.428,74.542 119.234,74.542 C152.041,74.542 178.73,101.231 178.73,134.036 C178.73,166.842 152.041,193.531 119.234,193.531 L119.234,193.531 Z M119.234,84.541 C91.942,84.541 69.739,106.745 69.739,134.036 C69.739,161.328 91.942,183.532 119.234,183.532 C146.526,183.532 168.73,161.328 168.73,134.036 C168.73,106.745 146.526,84.541 119.234,84.541 L119.234,84.541 Z" id="Fill-1541" fill="#F2F2F1" sketch:type="MSShapeGroup"></path>
            <path d="M119.234,193.531 C86.428,193.531 59.739,166.842 59.739,134.036 C59.739,101.231 86.428,74.542 119.234,74.542 C152.041,74.542 178.73,101.231 178.73,134.036 C178.73,166.842 152.041,193.531 119.234,193.531 L119.234,193.531 Z M119.234,84.541 C91.942,84.541 69.739,106.745 69.739,134.036 C69.739,161.328 91.942,183.532 119.234,183.532 C146.526,183.532 168.73,161.328 168.73,134.036 C168.73,106.745 146.526,84.541 119.234,84.541 L119.234,84.541 Z" id="Stroke-1542" stroke="#1D5777" stroke-width="6" stroke-linecap="round" stroke-linejoin="round" sketch:type="MSShapeGroup"></path>
            <path d="M119.235,141.485 C115.127,141.485 111.786,138.144 111.786,134.036 C111.786,129.929 115.127,126.587 119.235,126.587 C123.342,126.587 126.684,129.929 126.684,134.036 C126.684,138.144 123.342,141.485 119.235,141.485 L119.235,141.485 Z" id="Fill-1543" fill="#F2F2F1" sketch:type="MSShapeGroup"></path>
            <path d="M119.235,141.485 C115.127,141.485 111.786,138.144 111.786,134.036 C111.786,129.929 115.127,126.587 119.235,126.587 C123.342,126.587 126.684,129.929 126.684,134.036 C126.684,138.144 123.342,141.485 119.235,141.485 L119.235,141.485 Z" id="Stroke-1544" stroke="#1D5777" stroke-width="6" stroke-linecap="round" stroke-linejoin="round" sketch:type="MSShapeGroup"></path>
            <path d="M119.235,103.752 C116.473,103.752 114.235,101.513 114.235,98.752 L114.235,62.683 C114.235,59.922 116.473,57.684 119.235,57.684 C121.996,57.684 124.235,59.922 124.235,62.683 L124.235,98.752 C124.235,101.513 121.996,103.752 119.235,103.752 L119.235,103.752 Z" id="Fill-1545" fill="#F2F2F1" sketch:type="MSShapeGroup"></path>
            <path d="M119.235,103.752 C116.473,103.752 114.235,101.513 114.235,98.752 L114.235,62.683 C114.235,59.922 116.473,57.684 119.235,57.684 C121.996,57.684 124.235,59.922 124.235,62.683 L124.235,98.752 C124.235,101.513 121.996,103.752 119.235,103.752 L119.235,103.752 Z" id="Stroke-1546" stroke="#1D5777" stroke-width="6" stroke-linecap="round" stroke-linejoin="round" sketch:type="MSShapeGroup"></path>
            <path d="M119.235,169.321 L119.235,205.39" id="Fill-1547" fill="#F2F2F1" sketch:type="MSShapeGroup"></path>
            <path d="M119.235,169.321 L119.235,205.39" id="Stroke-1548" stroke="#1D5777" sketch:type="MSShapeGroup"></path>
            <path d="M119.235,210.389 C116.473,210.389 114.235,208.151 114.235,205.389 L114.235,169.321 C114.235,166.559 116.473,164.321 119.235,164.321 C121.996,164.321 124.235,166.559 124.235,169.321 L124.235,205.389 C124.235,208.151 121.996,210.389 119.235,210.389 L119.235,210.389 Z" id="Fill-1549" fill="#F2F2F1" sketch:type="MSShapeGroup"></path>
            <path d="M119.235,210.389 C116.473,210.389 114.235,208.151 114.235,205.389 L114.235,169.321 C114.235,166.559 116.473,164.321 119.235,164.321 C121.996,164.321 124.235,166.559 124.235,169.321 L124.235,205.389 C124.235,208.151 121.996,210.389 119.235,210.389 L119.235,210.389 Z" id="Stroke-1550" stroke="#1D5777" stroke-width="6" stroke-linecap="round" stroke-linejoin="round" sketch:type="MSShapeGroup"></path>
            <path d="M190.588,134.036 L154.52,134.036" id="Fill-1551" fill="#F2F2F1" sketch:type="MSShapeGroup"></path>
            <path d="M190.588,134.036 L154.52,134.036" id="Stroke-1552" stroke="#1D5777" sketch:type="MSShapeGroup"></path>
            <path d="M190.588,139.036 L154.52,139.036 C151.758,139.036 149.519,136.798 149.519,134.036 C149.519,131.275 151.758,129.037 154.52,129.037 L190.588,129.037 C193.349,129.037 195.588,131.275 195.588,134.036 C195.588,136.798 193.349,139.036 190.588,139.036 L190.588,139.036 Z" id="Fill-1553" fill="#F2F2F1" sketch:type="MSShapeGroup"></path>
            <path d="M190.588,139.036 L154.52,139.036 C151.758,139.036 149.519,136.798 149.519,134.036 C149.519,131.275 151.758,129.037 154.52,129.037 L190.588,129.037 C193.349,129.037 195.588,131.275 195.588,134.036 C195.588,136.798 193.349,139.036 190.588,139.036 L190.588,139.036 Z" id="Stroke-1554" stroke="#1D5777" stroke-width="6" stroke-linecap="round" stroke-linejoin="round" sketch:type="MSShapeGroup"></path>
            <path d="M83.95,134.036 L47.881,134.036" id="Fill-1555" fill="#F2F2F1" sketch:type="MSShapeGroup"></path>
            <path d="M83.95,134.036 L47.881,134.036" id="Stroke-1556" stroke="#1D5777" sketch:type="MSShapeGroup"></path>
            <path d="M83.95,139.036 L47.882,139.036 C45.12,139.036 42.882,136.798 42.882,134.036 C42.882,131.275 45.12,129.037 47.882,129.037 L83.95,129.037 C86.712,129.037 88.95,131.275 88.95,134.036 C88.95,136.798 86.712,139.036 83.95,139.036 L83.95,139.036 Z" id="Fill-1557" fill="#F2F2F1" sketch:type="MSShapeGroup"></path>
            <path d="M83.95,139.036 L47.882,139.036 C45.12,139.036 42.882,136.798 42.882,134.036 C42.882,131.275 45.12,129.037 47.882,129.037 L83.95,129.037 C86.712,129.037 88.95,131.275 88.95,134.036 C88.95,136.798 86.712,139.036 83.95,139.036 L83.95,139.036 Z" id="Stroke-1558" stroke="#1D5777" stroke-width="6" stroke-linecap="round" stroke-linejoin="round" sketch:type="MSShapeGroup"></path>
        </g>
    </g>
</svg>